<svg xmlns="http://www.w3.org/2000/svg" viewBox="0 0 192 192" width="192" height="192">
  <rect width="192" height="192" rx="32" fill="#0a0a0f"/>
  <rect x="6" y="6" width="180" height="180" rx="28" fill="none" stroke="#00f0ff" stroke-width="1.5" opacity="0.3"/>
  <!-- Circuit pattern -->
  <line x1="20" y1="48" x2="48" y2="48" stroke="#00f0ff" stroke-width="1" opacity="0.2"/>
  <line x1="48" y1="48" x2="48" y2="20" stroke="#00f0ff" stroke-width="1" opacity="0.2"/>
  <line x1="144" y1="48" x2="172" y2="48" stroke="#ff00aa" stroke-width="1" opacity="0.2"/>
  <line x1="144" y1="48" x2="144" y2="20" stroke="#ff00aa" stroke-width="1" opacity="0.2"/>
  <line x1="20" y1="144" x2="48" y2="144" stroke="#ff00aa" stroke-width="1" opacity="0.2"/>
  <line x1="48" y1="144" x2="48" y2="172" stroke="#ff00aa" stroke-width="1" opacity="0.2"/>
  <line x1="144" y1="144" x2="172" y2="144" stroke="#00f0ff" stroke-width="1" opacity="0.2"/>
  <line x1="144" y1="144" x2="144" y2="172" stroke="#00f0ff" stroke-width="1" opacity="0.2"/>
  <!-- Central hexagon -->
  <polygon points="96,40 140,62 140,106 96,128 52,106 52,62" fill="none" stroke="#00f0ff" stroke-width="2.5" opacity="0.9"/>
  <polygon points="96,50 132,68 132,100 96,118 60,100 60,68" fill="#00f0ff" opacity="0.06"/>
  <!-- H letterform -->
  <text x="96" y="100" font-family="monospace" font-size="52" font-weight="bold" fill="#00f0ff" text-anchor="middle" dominant-baseline="middle">H</text>
  <!-- Corner nodes -->
  <circle cx="20" cy="20" r="3" fill="#ff00aa" opacity="0.6"/>
  <circle cx="172" cy="20" r="3" fill="#00f0ff" opacity="0.6"/>
  <circle cx="20" cy="172" r="3" fill="#00f0ff" opacity="0.6"/>
  <circle cx="172" cy="172" r="3" fill="#ff00aa" opacity="0.6"/>
</svg>
