<svg xmlns="http://www.w3.org/2000/svg" viewBox="0 0 512 512" width="512" height="512">
  <rect width="512" height="512" rx="80" fill="#1e1e2e"/>
  <rect x="16" y="16" width="480" height="480" rx="68" fill="none" stroke="#313244" stroke-width="3"/>
  <!-- Vault/shield shape -->
  <path d="M256 64 L400 132 V268 C400 364 332 420 256 448 C180 420 112 364 112 268 V132 Z"
        fill="none" stroke="#89b4fa" stroke-width="10" stroke-linejoin="round"/>
  <!-- Inner shield fill -->
  <path d="M256 88 L380 148 V268 C380 352 320 400 256 424 C192 400 132 352 132 268 V148 Z"
        fill="#89b4fa" opacity="0.08"/>
  <!-- Keyhole -->
  <circle cx="256" cy="224" r="40" fill="#89b4fa"/>
  <rect x="240" y="256" width="32" height="72" rx="10" fill="#89b4fa"/>
  <!-- Corner accent dots -->
  <circle cx="72" cy="72" r="10" fill="#cba6f7" opacity="0.6"/>
  <circle cx="440" cy="72" r="10" fill="#a6e3a1" opacity="0.6"/>
  <circle cx="72" cy="440" r="10" fill="#f9e2af" opacity="0.6"/>
  <circle cx="440" cy="440" r="10" fill="#f38ba8" opacity="0.6"/>
  <!-- Network connection lines (cyber theme) -->
  <line x1="72" y1="72" x2="160" y2="120" stroke="#cba6f7" stroke-width="1.5" opacity="0.3"/>
  <line x1="440" y1="72" x2="352" y2="120" stroke="#a6e3a1" stroke-width="1.5" opacity="0.3"/>
  <line x1="72" y1="440" x2="160" y2="380" stroke="#f9e2af" stroke-width="1.5" opacity="0.3"/>
  <line x1="440" y1="440" x2="352" y2="380" stroke="#f38ba8" stroke-width="1.5" opacity="0.3"/>
</svg>
