<svg xmlns="http://www.w3.org/2000/svg" viewBox="0 0 512 512" width="512" height="512">
  <rect width="512" height="512" rx="80" fill="#0a0a0f"/>
  <rect x="12" y="12" width="488" height="488" rx="72" fill="none" stroke="#00f0ff" stroke-width="2" opacity="0.3"/>
  <!-- Circuit grid pattern -->
  <line x1="48" y1="128" x2="128" y2="128" stroke="#00f0ff" stroke-width="1.5" opacity="0.15"/>
  <line x1="128" y1="48" x2="128" y2="128" stroke="#00f0ff" stroke-width="1.5" opacity="0.15"/>
  <line x1="384" y1="128" x2="464" y2="128" stroke="#ff00aa" stroke-width="1.5" opacity="0.15"/>
  <line x1="384" y1="48" x2="384" y2="128" stroke="#ff00aa" stroke-width="1.5" opacity="0.15"/>
  <line x1="48" y1="384" x2="128" y2="384" stroke="#ff00aa" stroke-width="1.5" opacity="0.15"/>
  <line x1="128" y1="384" x2="128" y2="464" stroke="#ff00aa" stroke-width="1.5" opacity="0.15"/>
  <line x1="384" y1="384" x2="464" y2="384" stroke="#00f0ff" stroke-width="1.5" opacity="0.15"/>
  <line x1="384" y1="384" x2="384" y2="464" stroke="#00f0ff" stroke-width="1.5" opacity="0.15"/>
  <!-- Central hexagon -->
  <polygon points="256,100 376,164 376,292 256,356 136,292 136,164" fill="none" stroke="#00f0ff" stroke-width="4" opacity="0.9"/>
  <polygon points="256,120 360,176 360,280 256,336 152,280 152,176" fill="#00f0ff" opacity="0.05"/>
  <!-- Inner hex -->
  <polygon points="256,150 336,194 336,270 256,314 176,270 176,194" fill="none" stroke="#ff00aa" stroke-width="1.5" opacity="0.3"/>
  <!-- H letterform -->
  <text x="256" y="240" font-family="monospace" font-size="120" font-weight="bold" fill="#00f0ff" text-anchor="middle" dominant-baseline="middle">H</text>
  <!-- Corner nodes -->
  <circle cx="48" cy="48" r="6" fill="#ff00aa" opacity="0.6"/>
  <circle cx="464" cy="48" r="6" fill="#00f0ff" opacity="0.6"/>
  <circle cx="48" cy="464" r="6" fill="#00f0ff" opacity="0.6"/>
  <circle cx="464" cy="464" r="6" fill="#ff00aa" opacity="0.6"/>
  <!-- Network lines from corners -->
  <line x1="48" y1="48" x2="136" y2="164" stroke="#ff00aa" stroke-width="1" opacity="0.2"/>
  <line x1="464" y1="48" x2="376" y2="164" stroke="#00f0ff" stroke-width="1" opacity="0.2"/>
  <line x1="48" y1="464" x2="136" y2="292" stroke="#00f0ff" stroke-width="1" opacity="0.2"/>
  <line x1="464" y1="464" x2="376" y2="292" stroke="#ff00aa" stroke-width="1" opacity="0.2"/>
</svg>
