<?xml version="1.0" encoding="UTF-8"?>
<svg xmlns="http://www.w3.org/2000/svg" style="display:none">
  <!-- HOLM HQ Icon Sprite Sheet -->
  <!-- These symbols can be referenced via <use href="assets/icons.svg#icon-name"> -->

  <symbol id="icon-terminal" viewBox="0 0 24 24">
    <rect x="2" y="3" width="20" height="18" rx="2" fill="none" stroke="currentColor" stroke-width="1.5"/>
    <polyline points="6,9 10,12 6,15" fill="none" stroke="currentColor" stroke-width="1.5"/>
    <line x1="12" y1="15" x2="18" y2="15" stroke="currentColor" stroke-width="1.5"/>
  </symbol>

  <symbol id="icon-shield" viewBox="0 0 24 24">
    <path d="M12,2 L20,6 L20,12 C20,17 16,20 12,22 C8,20 4,17 4,12 L4,6 Z" fill="none" stroke="currentColor" stroke-width="1.5"/>
  </symbol>

  <symbol id="icon-signal" viewBox="0 0 24 24">
    <circle cx="12" cy="18" r="2" fill="currentColor"/>
    <path d="M8,14 A5.5,5.5 0 0 1 16,14" fill="none" stroke="currentColor" stroke-width="1.5"/>
    <path d="M5,11 A9,9 0 0 1 19,11" fill="none" stroke="currentColor" stroke-width="1.5"/>
    <path d="M2,8 A13,13 0 0 1 22,8" fill="none" stroke="currentColor" stroke-width="1.5"/>
  </symbol>

  <symbol id="icon-database" viewBox="0 0 24 24">
    <ellipse cx="12" cy="5" rx="8" ry="3" fill="none" stroke="currentColor" stroke-width="1.5"/>
    <path d="M4,5 L4,19 C4,20.7 7.6,22 12,22 C16.4,22 20,20.7 20,19 L20,5" fill="none" stroke="currentColor" stroke-width="1.5"/>
    <ellipse cx="12" cy="12" rx="8" ry="3" fill="none" stroke="currentColor" stroke-width="1.5"/>
  </symbol>

  <symbol id="icon-lock" viewBox="0 0 24 24">
    <rect x="5" y="11" width="14" height="11" rx="2" fill="none" stroke="currentColor" stroke-width="1.5"/>
    <path d="M8,11 L8,7 A4,4 0 0 1 16,7 L16,11" fill="none" stroke="currentColor" stroke-width="1.5"/>
    <circle cx="12" cy="16" r="1.5" fill="currentColor"/>
  </symbol>

  <symbol id="icon-radar" viewBox="0 0 24 24">
    <circle cx="12" cy="12" r="9" fill="none" stroke="currentColor" stroke-width="1.5"/>
    <circle cx="12" cy="12" r="5" fill="none" stroke="currentColor" stroke-width="1" opacity="0.5"/>
    <circle cx="12" cy="12" r="1" fill="currentColor"/>
    <line x1="12" y1="12" x2="18" y2="6" stroke="currentColor" stroke-width="1.5"/>
  </symbol>

  <symbol id="icon-brain" viewBox="0 0 24 24">
    <circle cx="12" cy="12" r="9" fill="none" stroke="currentColor" stroke-width="1.5"/>
    <path d="M12,3 L12,21 M7,7 Q12,12 7,17 M17,7 Q12,12 17,17" fill="none" stroke="currentColor" stroke-width="1" opacity="0.6"/>
  </symbol>

  <symbol id="icon-eye" viewBox="0 0 24 24">
    <path d="M2,12 C2,12 6,5 12,5 C18,5 22,12 22,12 C22,12 18,19 12,19 C6,19 2,12 2,12 Z" fill="none" stroke="currentColor" stroke-width="1.5"/>
    <circle cx="12" cy="12" r="3" fill="none" stroke="currentColor" stroke-width="1.5"/>
  </symbol>
</svg>
